<mxfile host="app.diagrams.net" modified="2020-06-21T01:20:04.136Z" agent="5.0 (Macintosh; Intel Mac OS X 10_15_4) AppleWebKit/537.36 (KHTML, like Gecko) Chrome/83.0.4103.97 Safari/537.36" etag="NGgtXiGb5PDqOTbxLppD" version="13.3.0" type="github">
  <diagram id="IFrhrqgHPlLCJnyAjFTX" name="第 1 页">
    <mxGraphModel dx="1773" dy="542" grid="1" gridSize="10" guides="1" tooltips="1" connect="1" arrows="1" fold="1" page="1" pageScale="1" pageWidth="827" pageHeight="1169" math="0" shadow="0">
      <root>
        <mxCell id="0" />
        <mxCell id="1" parent="0" />
        <mxCell id="JVRPQKpvG02_lBMR82Qk-1" value="" style="rounded=1;whiteSpace=wrap;html=1;shadow=1;" parent="1" vertex="1">
          <mxGeometry x="414" y="180" width="190" height="110" as="geometry" />
        </mxCell>
        <mxCell id="JVRPQKpvG02_lBMR82Qk-2" value="&lt;b&gt;&lt;i&gt;kprobe_debug_handler&lt;/i&gt;&lt;/b&gt;" style="text;html=1;align=center;verticalAlign=middle;resizable=0;points=[];autosize=1;" parent="1" vertex="1">
          <mxGeometry x="414" y="180" width="150" height="20" as="geometry" />
        </mxCell>
        <mxCell id="JVRPQKpvG02_lBMR82Qk-3" value="" style="rounded=1;whiteSpace=wrap;html=1;shadow=1;" parent="1" vertex="1">
          <mxGeometry x="414" y="410" width="190" height="80" as="geometry" />
        </mxCell>
        <mxCell id="JVRPQKpvG02_lBMR82Qk-4" value="&lt;b&gt;&lt;i&gt;do_debug&lt;/i&gt;&lt;/b&gt;" style="text;html=1;align=center;verticalAlign=middle;resizable=0;points=[];autosize=1;" parent="1" vertex="1">
          <mxGeometry x="424" y="410" width="70" height="20" as="geometry" />
        </mxCell>
        <mxCell id="JVRPQKpvG02_lBMR82Qk-5" value="cur-&amp;gt;post_handler" style="rounded=1;whiteSpace=wrap;html=1;shadow=1;dashed=1;fillColor=#f5f5f5;strokeColor=#666666;fontColor=#333333;" parent="1" vertex="1">
          <mxGeometry x="424" y="250" width="120" height="30" as="geometry" />
        </mxCell>
        <mxCell id="JVRPQKpvG02_lBMR82Qk-6" value="cur = kprobe_running()" style="rounded=1;whiteSpace=wrap;html=1;shadow=1;dashed=1;" parent="1" vertex="1">
          <mxGeometry x="440" y="210" width="144" height="30" as="geometry" />
        </mxCell>
        <mxCell id="JVRPQKpvG02_lBMR82Qk-7" value="kprobe_debug_handler" style="rounded=1;whiteSpace=wrap;html=1;shadow=1;dashed=1;" parent="1" vertex="1">
          <mxGeometry x="424" y="440" width="140" height="30" as="geometry" />
        </mxCell>
        <mxCell id="JVRPQKpvG02_lBMR82Qk-8" value="" style="rounded=1;whiteSpace=wrap;html=1;shadow=1;" parent="1" vertex="1">
          <mxGeometry x="150" y="180" width="190" height="200" as="geometry" />
        </mxCell>
        <mxCell id="JVRPQKpvG02_lBMR82Qk-9" value="&lt;b&gt;&lt;i&gt;kprobe_int3_handler&lt;/i&gt;&lt;/b&gt;" style="text;html=1;align=center;verticalAlign=middle;resizable=0;points=[];autosize=1;" parent="1" vertex="1">
          <mxGeometry x="160" y="180" width="130" height="20" as="geometry" />
        </mxCell>
        <mxCell id="JVRPQKpvG02_lBMR82Qk-10" value="" style="rounded=1;whiteSpace=wrap;html=1;shadow=1;" parent="1" vertex="1">
          <mxGeometry x="150" y="410" width="190" height="80" as="geometry" />
        </mxCell>
        <mxCell id="JVRPQKpvG02_lBMR82Qk-11" value="&lt;b&gt;&lt;i&gt;do_int3&lt;/i&gt;&lt;/b&gt;" style="text;html=1;align=center;verticalAlign=middle;resizable=0;points=[];autosize=1;" parent="1" vertex="1">
          <mxGeometry x="165" y="410" width="60" height="20" as="geometry" />
        </mxCell>
        <mxCell id="JVRPQKpvG02_lBMR82Qk-12" value="set_current_kprobe" style="rounded=1;whiteSpace=wrap;html=1;shadow=1;dashed=1;" parent="1" vertex="1">
          <mxGeometry x="160" y="250" width="120" height="30" as="geometry" />
        </mxCell>
        <mxCell id="JVRPQKpvG02_lBMR82Qk-13" value="get_kprobe" style="rounded=1;whiteSpace=wrap;html=1;shadow=1;dashed=1;" parent="1" vertex="1">
          <mxGeometry x="200" y="210" width="120" height="30" as="geometry" />
        </mxCell>
        <mxCell id="JVRPQKpvG02_lBMR82Qk-15" value="kprobe_int3_handler" style="rounded=1;whiteSpace=wrap;html=1;shadow=1;dashed=1;" parent="1" vertex="1">
          <mxGeometry x="165" y="440" width="140" height="30" as="geometry" />
        </mxCell>
        <mxCell id="JVRPQKpvG02_lBMR82Qk-16" value="p-&amp;gt;pre_handler" style="rounded=1;whiteSpace=wrap;html=1;shadow=1;dashed=1;fillColor=#f5f5f5;strokeColor=#666666;fontColor=#333333;" parent="1" vertex="1">
          <mxGeometry x="200" y="290" width="120" height="30" as="geometry" />
        </mxCell>
        <mxCell id="JVRPQKpvG02_lBMR82Qk-17" value="setup_singlestep" style="rounded=1;whiteSpace=wrap;html=1;shadow=1;dashed=1;" parent="1" vertex="1">
          <mxGeometry x="160" y="330" width="120" height="30" as="geometry" />
        </mxCell>
        <mxCell id="JVRPQKpvG02_lBMR82Qk-18" value="" style="rounded=1;whiteSpace=wrap;html=1;shadow=1;" parent="1" vertex="1">
          <mxGeometry x="-80" y="180" width="190" height="150" as="geometry" />
        </mxCell>
        <mxCell id="JVRPQKpvG02_lBMR82Qk-19" value="&lt;b&gt;&lt;i&gt;register_kprobe&lt;/i&gt;&lt;/b&gt;" style="text;html=1;align=center;verticalAlign=middle;resizable=0;points=[];autosize=1;" parent="1" vertex="1">
          <mxGeometry x="-76" y="180" width="110" height="20" as="geometry" />
        </mxCell>
        <mxCell id="JVRPQKpvG02_lBMR82Qk-20" value="kprobe_table" style="rounded=1;whiteSpace=wrap;html=1;shadow=1;dashed=1;" parent="1" vertex="1">
          <mxGeometry x="-70" y="205" width="140" height="30" as="geometry" />
        </mxCell>
        <mxCell id="JVRPQKpvG02_lBMR82Qk-21" value="arch_copy_kprobe" style="rounded=1;whiteSpace=wrap;html=1;shadow=1;dashed=1;" parent="1" vertex="1">
          <mxGeometry x="-40" y="240" width="140" height="30" as="geometry" />
        </mxCell>
        <mxCell id="JVRPQKpvG02_lBMR82Qk-23" value="" style="endArrow=classic;html=1;exitX=0.5;exitY=0;exitDx=0;exitDy=0;entryX=0.5;entryY=1;entryDx=0;entryDy=0;" parent="1" source="JVRPQKpvG02_lBMR82Qk-10" target="JVRPQKpvG02_lBMR82Qk-8" edge="1">
          <mxGeometry width="50" height="50" relative="1" as="geometry">
            <mxPoint x="300" y="410" as="sourcePoint" />
            <mxPoint x="350" y="360" as="targetPoint" />
          </mxGeometry>
        </mxCell>
        <mxCell id="JVRPQKpvG02_lBMR82Qk-24" value="" style="endArrow=classic;html=1;exitX=1;exitY=0.5;exitDx=0;exitDy=0;entryX=0;entryY=0.5;entryDx=0;entryDy=0;dashed=1;" parent="1" source="JVRPQKpvG02_lBMR82Qk-17" target="JVRPQKpvG02_lBMR82Qk-3" edge="1">
          <mxGeometry width="50" height="50" relative="1" as="geometry">
            <mxPoint x="300" y="410" as="sourcePoint" />
            <mxPoint x="350" y="360" as="targetPoint" />
            <Array as="points">
              <mxPoint x="360" y="345" />
              <mxPoint x="360" y="450" />
            </Array>
          </mxGeometry>
        </mxCell>
        <mxCell id="JVRPQKpvG02_lBMR82Qk-25" value="" style="endArrow=classic;html=1;dashed=1;exitX=0.5;exitY=0;exitDx=0;exitDy=0;entryX=0.5;entryY=1;entryDx=0;entryDy=0;" parent="1" source="JVRPQKpvG02_lBMR82Qk-3" target="JVRPQKpvG02_lBMR82Qk-1" edge="1">
          <mxGeometry width="50" height="50" relative="1" as="geometry">
            <mxPoint x="300" y="400" as="sourcePoint" />
            <mxPoint x="350" y="350" as="targetPoint" />
          </mxGeometry>
        </mxCell>
        <mxCell id="JVRPQKpvG02_lBMR82Qk-26" value="" style="endArrow=none;dashed=1;html=1;entryX=0;entryY=0.5;entryDx=0;entryDy=0;exitX=1;exitY=0.5;exitDx=0;exitDy=0;" parent="1" source="JVRPQKpvG02_lBMR82Qk-12" target="JVRPQKpvG02_lBMR82Qk-6" edge="1">
          <mxGeometry width="50" height="50" relative="1" as="geometry">
            <mxPoint x="300" y="400" as="sourcePoint" />
            <mxPoint x="350" y="350" as="targetPoint" />
            <Array as="points">
              <mxPoint x="360" y="265" />
              <mxPoint x="380" y="225" />
            </Array>
          </mxGeometry>
        </mxCell>
        <mxCell id="JVRPQKpvG02_lBMR82Qk-27" value="" style="endArrow=none;dashed=1;html=1;exitX=1;exitY=0.5;exitDx=0;exitDy=0;entryX=0;entryY=0.5;entryDx=0;entryDy=0;" parent="1" source="JVRPQKpvG02_lBMR82Qk-20" target="JVRPQKpvG02_lBMR82Qk-13" edge="1">
          <mxGeometry width="50" height="50" relative="1" as="geometry">
            <mxPoint x="300" y="400" as="sourcePoint" />
            <mxPoint x="350" y="350" as="targetPoint" />
            <Array as="points">
              <mxPoint x="180" y="220" />
            </Array>
          </mxGeometry>
        </mxCell>
        <mxCell id="5SyBEUpc-pooQ5lEFKOo-1" value="arm_kprobe&lt;br&gt;&lt;u&gt;text_poke&lt;/u&gt;" style="rounded=1;whiteSpace=wrap;html=1;shadow=1;dashed=1;" vertex="1" parent="1">
          <mxGeometry x="-70" y="275" width="140" height="50" as="geometry" />
        </mxCell>
      </root>
    </mxGraphModel>
  </diagram>
</mxfile>
